<svg width="48" height="53" viewBox="0 0 48 53" fill="none" xmlns="http://www.w3.org/2000/svg">
<g clip-path="url(#clip0_114_2)">
<path d="M30.7642 18.0263L27.6979 17.514C27.6235 17.9594 27.647 18.4157 27.7668 18.8511C27.8866 19.2865 28.0999 19.6905 28.3917 20.0352C28.6836 20.3798 29.047 20.6567 29.4567 20.8466C29.8664 21.0365 30.3126 21.1349 30.7642 21.1348V18.0263ZM3.4088 18.0263V14.9177C1.69287 14.9177 0.300232 16.3103 0.300232 18.0263H3.4088ZM8.3825 46.0034H36.6332V39.7862H8.3825V46.0034ZM39.6174 14.9177H30.7642V21.1348H39.6174V14.9177ZM33.8305 18.5386L35.8349 6.51214L29.7023 5.49004L27.6979 17.5165L33.8305 18.5386ZM30.3165 -0.00341775H29.7844V6.21371H30.3165V-0.00341775ZM20.9908 4.70419L14.7339 14.0871L19.9066 17.5364L26.1635 8.15097L20.9908 4.70419ZM13.1821 14.9177H3.4088V21.1348H13.1821V14.9177ZM0.300232 18.0263V37.9211H6.51736V18.0263H0.300232ZM44.5588 39.5052L47.543 24.5841L41.4477 23.3655L38.4635 38.2867L44.5588 39.5052ZM14.7339 14.0871C14.5636 14.3426 14.3329 14.5521 14.0622 14.697C13.7915 14.8419 13.4892 14.9177 13.1821 14.9177V21.1348C14.5126 21.1348 15.8225 20.8064 16.9955 20.1786C18.1685 19.5509 19.1685 18.6433 19.9066 17.5364L14.7339 14.0871ZM35.8349 6.51214C35.9685 5.71041 35.9259 4.88919 35.71 4.10561C35.4941 3.32202 35.1101 2.59488 34.5846 1.97476C34.0592 1.35465 33.405 0.856452 32.6674 0.514828C31.9299 0.173204 31.1293 -0.0036456 30.3165 -0.00341775V6.21371C30.2264 6.21349 30.1349 6.19367 30.0532 6.15562C29.9715 6.11758 29.899 6.06221 29.8408 5.99337C29.7826 5.92453 29.7401 5.84386 29.7162 5.75695C29.6922 5.67004 29.6875 5.57896 29.7023 5.49004L35.8349 6.51214ZM39.6174 21.1348C39.8934 21.1346 40.1661 21.1957 40.4157 21.3137C40.6652 21.4316 40.8855 21.6035 41.0606 21.8169C41.2357 22.0303 41.3613 22.2799 41.4282 22.5477C41.4951 22.8155 41.5018 23.0948 41.4477 23.3655L47.543 24.5841C47.7773 23.4118 47.7486 22.2021 47.459 21.0422C47.1694 19.8823 46.6261 18.8011 45.8683 17.8765C45.1104 16.9519 44.1569 16.2069 43.0764 15.6953C41.9959 15.1836 40.8154 14.9181 39.6199 14.9177L39.6174 21.1348ZM36.6332 46.0034C38.5018 46.0034 40.3126 45.3559 41.7576 44.1712C43.2027 42.9864 44.1925 41.3376 44.5588 39.5052L38.4635 38.2867C38.3789 38.7097 38.1503 39.0904 37.8165 39.3638C37.4828 39.6373 37.0646 39.7865 36.6332 39.7862V46.0034ZM29.7844 -0.00341775C28.0444 -0.00320037 26.3313 0.426597 24.7973 1.24782C23.2633 2.06905 21.9558 3.25631 20.9908 4.70419L26.1635 8.15097C26.561 7.555 27.0994 7.06636 27.7311 6.72842C28.3627 6.39047 29.068 6.21367 29.7844 6.21371V-0.00341775ZM8.3825 39.7862C7.88784 39.7862 7.41343 39.5897 7.06365 39.2399C6.71387 38.8902 6.51736 38.4158 6.51736 37.9211H0.300232C0.300232 40.0646 1.15175 42.1204 2.66747 43.6361C4.18319 45.1518 6.23895 46.0034 8.3825 46.0034V39.7862Z" fill="#AAAAAA"/>
<path d="M13.7677 20.0914L13.7677 40.4479" stroke="#AAAAAA" stroke-width="2.08333"/>
</g>
<defs>
<clipPath id="clip0_114_2">
<rect width="48" height="53" fill="white"/>
</clipPath>
</defs>
</svg>
