<svg width="48" height="47" viewBox="0 0 48 47" fill="none" xmlns="http://www.w3.org/2000/svg">
<rect x="4.8252" y="19.1998" width="6.9325" height="23.0192" fill="#FF0000"/>
<path d="M31.0644 18.2179L27.9981 17.7057C27.9237 18.1511 27.9472 18.6073 28.067 19.0428C28.1869 19.4782 28.4001 19.8822 28.6919 20.2268C28.9838 20.5715 29.3472 20.8484 29.7569 21.0383C30.1666 21.2282 30.6128 21.3265 31.0644 21.3265V18.2179ZM3.70903 18.2179V15.1094C1.9931 15.1094 0.600464 16.502 0.600464 18.2179H3.70903ZM8.68274 46.195H36.9334V39.9779H8.68274V46.195ZM39.9176 15.1094H31.0644V21.3265H39.9176V15.1094ZM34.1307 18.7302L36.1351 6.70382L30.0025 5.68172L27.9981 17.7081L34.1307 18.7302ZM30.6168 0.188263H30.0846V6.40539H30.6168V0.188263ZM21.2911 4.89588L15.0342 14.2788L20.2068 17.728L26.4637 8.34265L21.2911 4.89588ZM13.4824 15.1094H3.70903V21.3265H13.4824V15.1094ZM0.600464 18.2179V38.1128H6.8176V18.2179H0.600464ZM44.859 39.6969L47.8432 24.7758L41.7479 23.5572L38.7637 38.4783L44.859 39.6969ZM15.0342 14.2788C14.8639 14.5343 14.6331 14.7437 14.3624 14.8886C14.0917 15.0335 13.7894 15.1094 13.4824 15.1094V21.3265C14.8128 21.3265 16.1227 20.9981 17.2957 20.3703C18.4688 19.7426 19.4687 18.835 20.2068 17.728L15.0342 14.2788ZM36.1351 6.70382C36.2688 5.90209 36.2262 5.08087 36.0102 4.29729C35.7943 3.5137 35.4103 2.78656 34.8849 2.16644C34.3594 1.54633 33.7052 1.04813 32.9677 0.706509C32.2302 0.364885 31.4296 0.188035 30.6168 0.188263V6.40539C30.5266 6.40517 30.4351 6.38535 30.3534 6.3473C30.2717 6.30926 30.1992 6.2539 30.141 6.18505C30.0828 6.11621 30.0403 6.03554 30.0164 5.94863C29.9925 5.86172 29.9877 5.77064 30.0025 5.68172L36.1351 6.70382ZM39.9176 21.3265C40.1937 21.3263 40.4663 21.3874 40.7159 21.5053C40.9655 21.6233 41.1858 21.7952 41.3609 22.0086C41.536 22.222 41.6615 22.4716 41.7284 22.7394C41.7954 23.0072 41.802 23.2865 41.7479 23.5572L47.8432 24.7758C48.0775 23.6035 48.0489 22.3938 47.7593 21.2339C47.4697 20.074 46.9264 18.9927 46.1685 18.0681C45.4107 17.1435 44.4571 16.3986 43.3766 15.8869C42.2961 15.3753 41.1156 15.1097 39.9201 15.1094L39.9176 21.3265ZM36.9334 46.195C38.802 46.1951 40.6129 45.5476 42.0579 44.3629C43.5029 43.1781 44.4927 41.5292 44.859 39.6969L38.7637 38.4783C38.6791 38.9014 38.4505 39.2821 38.1168 39.5555C37.783 39.8289 37.3648 39.9782 36.9334 39.9779V46.195ZM30.0846 0.188263C28.3446 0.188481 26.6316 0.618278 25.0976 1.43951C23.5636 2.26073 22.2561 3.44799 21.2911 4.89588L26.4637 8.34265C26.8612 7.74668 27.3997 7.25804 28.0313 6.9201C28.6629 6.58215 29.3682 6.40536 30.0846 6.40539V0.188263ZM8.68274 39.9779C8.18807 39.9779 7.71366 39.7814 7.36388 39.4316C7.0141 39.0818 6.8176 38.6074 6.8176 38.1128H0.600464C0.600464 40.2563 1.45199 42.3121 2.96771 43.8278C4.48343 45.3435 6.53918 46.195 8.68274 46.195V39.9779Z" fill="#FF0000"/>
<path d="M12.8033 15.0997L12.6913 46.1951" stroke="#F5F5F5" stroke-width="2.08333"/>
<rect x="13.8729" y="15.7893" width="28.2126" height="25.1445" fill="#FF0000"/>
<path d="M29.5956 2.7192L30.5029 16.4167H20.3427L29.5956 2.7192Z" fill="#FF0000"/>
</svg>
